<svg xmlns="http://www.w3.org/2000/svg" xml:space="preserve" width="1000" height="273" viewBox="0 0 1000 273"><path fill="#fff" d="M487.2 138.3h45.5v100.3h46.2V138.3h16.9c3.9-14 10.5-27.2 19.4-38.7h-128v38.7zm-150.8 0H382v100.4h46.1V138.3h45.5V99.6H336.4zM229 99.6l-70.9 139.1h49.3l11.3-23.6h74.7l12 23.6h49.1l-72-139.1H229zm6.6 81.2 20.1-41.3 20.5 41.3h-40.6zm-91.1-81.2H13.2v37.7h78.4l-83 63.5-1 .8c-6.8 5.6-9.4 14.7-6.5 23 2.9 8.2 10.6 13.9 19.3 14.1h125v-37.6H73.8l83-63.7c7.3-5.4 10.3-14.8 7.5-23.4-2.8-8.5-10.8-14.4-19.8-14.4zm809.5-1c-29.1-1.8-58.2-1.8-87.3 0v-.1c-13.1.9-25.4 6.6-34.7 15.9 9 16.4 13.7 34.8 13.7 53.5 0 19.3-4.9 38.2-14.3 55.1 9.3 9.7 21.9 15.6 35.3 16.5 29.1 1.8 58.2 1.8 87.3 0 23.2-2.2 41.6-16.8 44.3-35.6 2.3-23.2 2.3-46.5 0-69.7-2.7-18.9-21.1-33.5-44.3-35.6zm-1.1 92.4c-1 6.6-7.5 12.1-15.9 12.9-17.8 1.3-35.6 1.3-53.3 0-8.5-.9-14.9-6.2-15.9-12.9-1.6-14.5-1.6-29.1 0-43.5 1-6.6 7.5-12.1 15.9-12.9 17.8-1.3 35.6-1.3 53.3 0 8.4.8 14.9 6.2 15.9 12.9 1.5 14.5 1.5 29 0 43.5z"/><path fill="#ffcda0" d="M718.5 79.4c-53.2 0-96.5 39.7-96.5 88.5 0 31.8 18.6 60.9 48.2 76.6l-.2-21.9c-5.4-3.1-9.4-8.2-11.1-14.2v-.4c-3.2-12.7-3.3-42.3-1-55.9 1-6.6 5.5-12.1 11.8-14.4 14.6-5.5 50.2-13.4 83.6-13.4 5.5 0 10.7.3 15.7.7 7.3.9 12.3 3.9 14.9 9h23.8c-14.8-32.5-50.2-54.6-89.2-54.6z"/><path fill="#f96522" d="m730.8 63 42.4-54.2c.6-.8.9-1.9.8-2.9-.1-1-.7-2-1.5-2.6L769.2.6c-.8-.6-1.9-.9-2.9-.8-1 .1-2 .7-2.6 1.5l-48 61.1c-4.4.1-8.8.4-13.2 1l-33.7-42c-.6-.8-1.6-1.3-2.6-1.5-1-.1-2.1.2-2.9.9l-3.3 2.7c-.8.6-1.3 1.6-1.5 2.6-.1 1 .2 2.1.9 2.9L689 65.8c-48.9 12-84.9 53.1-84.9 102 0 58.3 51.2 105.5 114.4 105.5s114.4-47.2 114.4-105.5c0-54.3-44.7-99.1-102.1-104.8zm46 141.4c-2.9 13.4-8.6 18.5-23 19.6-25.9 1.2-51.8-.7-77.2-5.7-7.5-1.5-11.8-2.6-17.9-4.4-8.9-2.2-15.6-9.5-17-18.5-3.3-19.2-3.7-38.7-1.2-58 1.2-8.3 7-15.3 15-18 18.3-6.7 65.3-15.9 101.7-12.7 10 1 18.2 8.6 19.9 18.5.8 4.6 1.4 9.8 1.9 15.3 2.1 21.3 1.3 42.8-2.2 63.9z"/></svg>
